<svg data-logo="logo" xmlns="http://www.w3.org/2000/svg" viewBox="0 0 205 43">
        <g style="opacity: 1;" id="logogram" transform="translate(0, 1) rotate(0)"><path d="M24.2071 0.429993L28.9214 4.35857L24.8473 7.75366C24.4764 8.0627 23.9378 8.0627 23.5669 7.75366L19.4928 4.35857L24.2071 0.429993Z" fill="#00067F"></path><path fill-rule="evenodd" clip-rule="evenodd" d="M23.5669 11.7844C23.9378 12.0935 24.4764 12.0935 24.8473 11.7844L31.3398 6.37397L35.0743 9.48605L26.7678 16.4081C25.2845 17.6443 23.1297 17.6443 21.6463 16.4081L13.3399 9.48605L17.0744 6.37397L23.5669 11.7844Z" fill="#00067F"></path><path d="M24.2071 40.43L19.4928 36.5014L23.5669 33.1063C23.9378 32.7973 24.4764 32.7973 24.8473 33.1063L28.9214 36.5014L24.2071 40.43Z" fill="#00067F"></path><path fill-rule="evenodd" clip-rule="evenodd" d="M24.8473 29.0755C24.4764 28.7665 23.9378 28.7665 23.5669 29.0755L17.0744 34.486L13.3399 31.3739L21.6463 24.4518C23.1297 23.2157 25.2845 23.2157 26.7678 24.4518L35.0743 31.3739L31.3398 34.486L24.8473 29.0755Z" fill="#00067F"></path><path d="M48.207 20.43L43.4928 16.5014L39.7004 19.6618C39.2206 20.0616 39.2206 20.7984 39.7004 21.1982L43.4928 24.3586L48.207 20.43Z" fill="#00067F"></path><path fill-rule="evenodd" clip-rule="evenodd" d="M34.8634 21.1982C34.3837 20.7984 34.3837 20.0616 34.8634 19.6618L41.0743 14.486L37.3398 11.3739L30.16 17.3571C28.241 18.9563 28.241 21.9037 30.16 23.5029L37.3398 29.4861L41.0743 26.374L34.8634 21.1982Z" fill="#00067F"></path><path d="M0.207031 20.4301L4.9213 24.3587L8.71371 21.1983C9.19346 20.7985 9.19346 20.0617 8.71371 19.6619L4.9213 16.5015L0.207031 20.4301Z" fill="#00067F"></path><path fill-rule="evenodd" clip-rule="evenodd" d="M13.5506 19.6619C14.0304 20.0617 14.0304 20.7985 13.5506 21.1983L7.33976 26.3741L11.0742 29.4862L18.254 23.503C20.173 21.9038 20.173 18.9564 18.254 17.3572L11.0742 11.374L7.33976 14.4861L13.5506 19.6619Z" fill="#00067F"></path></g>
        <g style="opacity: 1;" id="logotype" transform="translate(55, 1)"><path fill="#9c3535" d="M16.05 33L6.80 33L6.80 32.27L7.50 32.09Q8.21 31.88 8.41 31.46Q8.63 31.04 8.63 30.30L8.63 30.30Q8.66 28.31 8.66 26.26Q8.66 24.21 8.66 22.15L8.66 22.15L8.66 20.71Q8.66 18.68 8.66 16.65Q8.66 14.63 8.63 12.59L8.63 12.59Q8.63 11.86 8.40 11.46Q8.17 11.05 7.47 10.81L7.47 10.81L6.80 10.60L6.80 9.86L15.24 9.86Q20.35 9.86 22.68 11.77Q25.01 13.68 25.01 16.79L25.01 16.79Q25.01 18.75 24.04 20.42Q23.08 22.08 20.88 23.06Q18.67 24.04 14.93 24.04L14.93 24.04L13.67 24.04Q13.67 25.51 13.67 27.07Q13.67 28.63 13.70 30.23L13.70 30.23Q13.70 31.67 15.00 31.98L15.00 31.98L16.05 32.27L16.05 33ZM13.67 20.71L13.67 23.02L15.14 23.02Q16.89 23.02 17.99 22.48Q19.09 21.94 19.63 20.61Q20.18 19.28 20.18 16.93L20.18 16.93Q20.18 14.59 19.60 13.28Q19.02 11.96 17.87 11.42Q16.71 10.88 15.00 10.88L15.00 10.88L13.70 10.88Q13.67 13.29 13.67 15.76Q13.67 18.23 13.67 20.71L13.67 20.71ZM35.12 33L26.37 33L26.37 32.34L26.90 32.16Q27.60 31.98 27.86 31.57Q28.12 31.14 28.12 30.45L28.12 30.45L28.12 20.19Q28.09 19.42 27.84 19.02Q27.60 18.61 26.90 18.47L26.90 18.47L26.37 18.34L26.37 17.70L32.08 15.67L32.50 16.06L32.81 19.14L32.81 19.38Q33.34 18.41 34.14 17.56Q34.95 16.72 35.89 16.20Q36.84 15.67 37.78 15.67L37.78 15.67Q39.11 15.67 39.78 16.38Q40.44 17.07 40.44 18.16L40.44 18.16Q40.44 19.35 39.78 19.96Q39.11 20.57 38.17 20.57L38.17 20.57Q36.77 20.57 35.75 19.31L35.75 19.31L35.68 19.24Q35.33 18.82 34.89 18.77Q34.45 18.72 34.04 19.21L34.04 19.21Q33.69 19.56 33.39 20.03Q33.09 20.50 32.84 21.13L32.84 21.13L32.84 30.30Q32.84 30.97 33.13 31.41Q33.41 31.84 34.07 32.02L34.07 32.02L35.12 32.34L35.12 33ZM50.34 15.67L50.34 15.67Q52.55 15.67 54.13 16.58Q55.70 17.49 56.56 19.09Q57.42 20.68 57.42 22.74L57.42 22.74Q57.42 23.20 57.38 23.60Q57.34 24.00 57.24 24.35L57.24 24.35L46.70 24.35Q46.74 27.96 48.05 29.54Q49.37 31.11 51.88 31.11L51.88 31.11Q53.63 31.11 54.72 30.53Q55.80 29.95 56.72 28.91L56.72 28.91L57.28 29.43Q56.23 31.36 54.42 32.42Q52.62 33.49 50.13 33.49L50.13 33.49Q47.65 33.49 45.76 32.44Q43.87 31.39 42.80 29.41Q41.73 27.43 41.73 24.67L41.73 24.67Q41.73 21.80 42.98 19.80Q44.22 17.81 46.20 16.74Q48.17 15.67 50.34 15.67ZM50.17 16.69L50.17 16.69Q49.16 16.69 48.40 17.27Q47.65 17.84 47.21 19.30Q46.77 20.75 46.70 23.38L46.70 23.38L52.97 23.38Q53.36 19.84 52.69 18.27Q52.02 16.69 50.17 16.69ZM67.46 41.09L59.20 41.09L59.20 40.42L59.66 40.28Q60.36 40.11 60.64 39.70Q60.92 39.30 60.92 38.56L60.92 38.56Q60.92 37.13 60.93 35.85Q60.95 34.58 60.95 33.38L60.95 33.38L60.95 23.76Q60.95 22.67 60.95 21.89Q60.95 21.10 60.92 20.12L60.92 20.12Q60.92 19.38 60.67 18.98Q60.43 18.58 59.73 18.44L59.73 18.44L59.20 18.34L59.20 17.70L64.84 15.67L65.26 16.02L65.57 17.32Q67.98 15.67 71.03 15.67L71.03 15.67Q74.01 15.67 75.81 17.91Q77.61 20.16 77.61 24.53L77.61 24.53Q77.61 28.77 75.63 31.13Q73.66 33.49 70.26 33.49L70.26 33.49Q68.90 33.49 67.69 33.24Q66.48 33 65.53 32.51L65.53 32.51L65.53 33.56Q65.53 34.61 65.55 35.84Q65.57 37.06 65.57 38.49L65.57 38.49Q65.57 39.90 66.80 40.25L66.80 40.25L67.46 40.42L67.46 41.09ZM68.62 32.09L68.62 32.09Q70.47 32.09 71.54 30.43Q72.61 28.77 72.61 24.67L72.61 24.67Q72.61 20.61 71.59 18.98Q70.58 17.35 68.72 17.35L68.72 17.35Q68.06 17.35 67.28 17.56Q66.52 17.77 65.64 18.27L65.64 18.27L65.64 31.50Q67.04 32.09 68.62 32.09ZM88.53 33L79.29 33L79.29 32.27L79.99 32.09Q80.69 31.88 80.90 31.46Q81.11 31.04 81.11 30.30L81.11 30.30Q81.15 28.31 81.15 26.26Q81.15 24.21 81.15 22.15L81.15 22.15L81.15 20.71Q81.15 18.68 81.15 16.65Q81.15 14.63 81.11 12.59L81.11 12.59Q81.11 11.86 80.88 11.46Q80.66 11.05 79.96 10.81L79.96 10.81L79.29 10.60L79.29 9.86L87.73 9.86Q92.84 9.86 95.16 11.77Q97.49 13.68 97.49 16.79L97.49 16.79Q97.49 18.75 96.53 20.42Q95.57 22.08 93.36 23.06Q91.16 24.04 87.41 24.04L87.41 24.04L86.15 24.04Q86.15 25.51 86.15 27.07Q86.15 28.63 86.19 30.23L86.19 30.23Q86.19 31.67 87.48 31.98L87.48 31.98L88.53 32.27L88.53 33ZM86.15 20.71L86.15 23.02L87.62 23.02Q89.37 23.02 90.47 22.48Q91.58 21.94 92.12 20.61Q92.66 19.28 92.66 16.93L92.66 16.93Q92.66 14.59 92.08 13.28Q91.51 11.96 90.35 11.42Q89.20 10.88 87.48 10.88L87.48 10.88L86.19 10.88Q86.15 13.29 86.15 15.76Q86.15 18.23 86.15 20.71L86.15 20.71ZM102.92 13.75L102.92 13.75Q101.76 13.75 100.96 13.01Q100.15 12.28 100.15 11.16L100.15 11.16Q100.15 10.00 100.96 9.29Q101.76 8.57 102.92 8.57L102.92 8.57Q104.07 8.57 104.88 9.29Q105.68 10.00 105.68 11.16L105.68 11.16Q105.68 12.28 104.88 13.01Q104.07 13.75 102.92 13.75ZM106.91 33L98.89 33L98.89 32.34L99.42 32.20Q100.12 31.98 100.36 31.57Q100.61 31.14 100.64 30.45L100.64 30.45L100.64 24.00Q100.64 22.92 100.64 21.99Q100.64 21.06 100.61 20.09L100.61 20.09Q100.61 19.38 100.34 18.98Q100.08 18.58 99.38 18.44L99.38 18.44L98.89 18.34L98.89 17.70L105.02 15.67L105.44 16.06L105.33 21.03L105.33 30.48Q105.33 31.18 105.59 31.60Q105.86 32.02 106.52 32.23L106.52 32.23L106.91 32.34L106.91 33ZM116.67 33L108.52 33L108.52 32.34L109.04 32.20Q110.20 31.81 110.20 30.45L110.20 30.45Q110.20 29.25 110.21 28.05Q110.23 26.84 110.23 25.65L110.23 25.65L110.23 12.35Q110.23 11.61 109.99 11.25Q109.74 10.88 109.04 10.70L109.04 10.70L108.52 10.56L108.52 9.90L114.64 8.43L115.10 8.74L114.96 13.68L114.96 30.45Q114.99 31.14 115.25 31.58Q115.52 32.02 116.18 32.20L116.18 32.20L116.67 32.34L116.67 33ZM127.00 33.49L127.00 33.49Q124.41 33.49 122.46 32.41Q120.52 31.32 119.45 29.32Q118.39 27.33 118.39 24.56L118.39 24.56Q118.39 21.80 119.52 19.80Q120.66 17.81 122.60 16.74Q124.55 15.67 127.00 15.67L127.00 15.67Q129.45 15.67 131.39 16.74Q133.33 17.81 134.47 19.79Q135.61 21.77 135.61 24.56L135.61 24.56Q135.61 27.33 134.54 29.34Q133.47 31.36 131.55 32.42Q129.62 33.49 127.00 33.49ZM127.00 32.51L127.00 32.51Q128.26 32.51 129.04 31.83Q129.83 31.14 130.18 29.43Q130.53 27.71 130.53 24.63L130.53 24.63Q130.53 21.52 130.18 19.79Q129.83 18.05 129.04 17.37Q128.26 16.69 127.00 16.69L127.00 16.69Q125.74 16.69 124.97 17.37Q124.20 18.05 123.83 19.79Q123.46 21.52 123.46 24.63L123.46 24.63Q123.46 27.71 123.83 29.43Q124.20 31.14 124.97 31.83Q125.74 32.51 127.00 32.51ZM143.80 33.49L143.80 33.49Q141.63 33.49 140.38 32.42Q139.14 31.36 139.14 28.94L139.14 28.94Q139.14 28.10 139.16 27.35Q139.18 26.59 139.18 25.58L139.18 25.58L139.18 17.28L136.69 17.28L136.69 16.51L137.64 16.38Q138.65 16.20 139.37 15.74Q140.09 15.29 140.68 14.48L140.68 14.48L142.96 11.33L144.01 11.33L143.90 16.20L147.89 16.20L147.89 17.28L143.87 17.28L143.87 29.22Q143.87 30.48 144.41 31.11Q144.95 31.74 145.76 31.74L145.76 31.74Q146.46 31.74 147.02 31.41Q147.58 31.07 148.14 30.52L148.14 30.52L148.59 31.04Q147.93 32.20 146.74 32.84Q145.55 33.49 143.80 33.49Z"></path></g>
        
      </svg>